<svg width="325" height="475" viewBox="0 0 325 475"  xmlns="http://www.w3.org/2000/svg">
<path d="M227.309 466.467C196.486 475.448 165.633 476.251 134.446 471.592C116.846 468.962 99.8028 464.828 84.6092 455.038C81.2426 452.869 78.0079 450.545 75.1767 447.67C73.4743 445.942 72.246 443.971 71.9148 441.618C67.4189 409.678 61.7379 377.92 57.4022 345.95C54.1427 321.916 49.9804 298.006 46.3652 274.018C43.018 251.81 39.9688 229.557 36.5966 207.353C32.7044 181.724 28.5641 156.133 24.6328 130.51C24.0493 126.706 22.3811 124.18 18.7915 122.587C0.86112 114.633 -4.00875 96.4025 5.90479 81.3754C15.0551 67.5053 16.4194 52.763 18.4716 37.6338C19.0658 33.2526 21.0324 30.1451 24.2921 27.6412C36.2048 18.4908 50.1822 14.1026 64.5062 10.7631C91.5059 4.46839 118.945 1.34989 146.629 0.790595C165.118 0.417152 183.678 -0.0991148 202.105 1.05677C231.066 2.87336 259.854 6.4445 286.438 19.5391C291.844 22.2018 296.769 25.5298 301.317 29.5351C307.364 34.8609 310.728 41.1945 311.267 49.3652C311.933 59.4765 313.323 69.5386 314.249 79.6357C314.445 81.7706 315.226 83.3401 316.59 84.9344C329.18 99.6471 326.514 115.948 309.862 125.601C307.422 127.016 306.266 128.676 305.962 131.416C304.124 147.961 302.222 164.499 300.255 181.028C297.74 202.152 295.099 223.261 292.596 244.386C290.11 265.365 287.761 286.36 285.292 307.34C282.414 331.784 279.464 356.219 276.557 380.66C274.496 397.995 272.252 415.312 270.501 432.678C269.748 440.153 265.7 445.364 260.462 449.841C250.928 457.992 239.589 462.773 227.309 466.467ZM266.101 58.6098C276.047 55.8818 286.191 53.6413 294.666 47.2353C299.92 43.2641 300.083 40.5068 295.148 36.0483C288.09 29.6715 279.558 25.9482 270.722 22.8124C245.345 13.8066 218.887 10.9214 192.263 9.4701C164.943 7.98078 137.657 9.42216 110.473 12.3568C91.2701 14.4299 72.214 17.4594 53.7272 23.3064C45.6133 25.8727 37.6838 28.8881 30.8169 34.1073C28.2864 36.0306 26.6709 38.2032 27.8241 41.7925C30.2652 49.3905 41.6669 58.3666 49.8452 58.816C49.5261 50.1407 51.6489 47.1115 60.301 45.3695C67.5441 43.911 74.8879 44.3196 82.1366 45.7711C85.2614 46.3969 88.2054 47.5043 90.8357 49.3949C93.8087 51.5319 95.2183 54.5317 94.8914 58.0048C94.5551 61.5782 92.4004 64.0852 88.8367 65.2034C86.8413 65.8295 84.8712 66.5359 82.8896 67.2062C144.193 73.2112 204.949 70.3736 266.101 58.6098ZM36.5861 67.0603C32.8152 64.7361 29.0443 62.4118 25.2192 60.0541C21.3838 72.0246 23.2289 82.1315 33.388 90.0632C39.5195 94.8504 46.3593 98.3689 53.6662 100.617C80.2722 108.804 107.756 111.643 135.41 112.689C156.043 113.469 176.672 112.79 197.281 110.997C220.867 108.945 244.316 106.285 267.044 99.3208C278.823 95.7118 290.553 91.8848 301.174 85.4132C302.981 84.3117 305.486 83.1936 305.223 80.7594C304.378 72.9365 304.271 64.9898 302.222 56.9535C297.909 59.44 294.076 61.7113 289.912 63.4216C274.691 69.6724 258.715 72.959 242.555 75.2013C192.294 82.1752 141.84 85.3678 91.1509 81.0209C72.5077 79.4222 54.2027 75.9534 36.5861 67.0603ZM22.2149 114.248C41.5501 124.189 62.3287 129.547 83.6459 132.649C117.96 137.643 152.424 140.322 187.172 138.085C216.263 136.212 245.249 133.657 273.828 127.718C285.236 125.348 296.698 122.789 306.842 116.708C315.199 111.697 317.625 104.238 314.151 96.8554C312.686 93.7416 311.037 92.8377 308.037 95.0088C300.245 100.646 291.217 103.725 282.332 107.022C244.273 121.147 204.339 123.391 164.395 125.024C135.715 126.197 107.155 124.062 78.8553 119.168C64.9048 116.755 51.118 113.764 38.2535 107.346C28.1826 102.322 20.2196 95.1449 14.1324 85.5809C6.70783 96.0758 10.0299 107.934 22.2149 114.248Z" />
</svg>
